<svg viewBox="0 0 396 309.9694" width="5000px" height="3913.754935216422px" xmlns="http://www.w3.org/2000/svg" xmlns:xlink="http://www.w3.org/1999/xlink" preserveAspectRatio="none"><defs></defs><style>.companyName5o5QLs22F {fill:#000000;fill-opacity:1;}.icon15o5QLs22F {fill:#000000;fill-opacity:1;}.icon25o5QLs22F {fill:#000000;fill-opacity:1;}.icon35o5QLs22F {fill:#000000;fill-opacity:1;}.text5o5QLs22F {fill:#000000;fill-opacity:1;}</style><g opacity="1" transform="rotate(0 0 273.3333)">
        <svg width="396" height="36.6361" x="0" y="273.3333" version="1.1" preserveAspectRatio="none" viewBox="0.32 -29.68 406.8 37.64">
          <g transform="matrix(1 0 0 1 0 0)" class="text5o5QLs22F"><path transform="" stroke="none" d="M32.24-21.04L34.84-21.04L26.88 0L24.20 0L17.56-17.24L10.92 0L8.24 0L0.32-21.04L3.04-21.04L9.64-3.16L16.40-21.04L18.84-21.04L25.56-3.16L32.24-21.04Z"></path>
    <path transform="" stroke="none" d="M58.08-10.52L58.04-9.64L40.44-9.64Q40.68-6.36 42.96-4.34Q45.24-2.32 48.72-2.32L48.72-2.32Q50.68-2.32 52.32-3.02Q53.96-3.72 55.16-5.08L55.16-5.08L56.76-3.24Q55.36-1.56 53.26-0.68Q51.16 0.20 48.64 0.20L48.64 0.20Q45.40 0.20 42.90-1.18Q40.40-2.56 39.00-5Q37.60-7.44 37.60-10.52L37.60-10.52Q37.60-13.60 38.94-16.04Q40.28-18.48 42.62-19.84Q44.96-21.20 47.88-21.20L47.88-21.20Q50.80-21.20 53.12-19.84Q55.44-18.48 56.76-16.06Q58.08-13.64 58.08-10.52L58.08-10.52ZM47.88-18.76Q44.84-18.76 42.78-16.82Q40.72-14.88 40.44-11.76L40.44-11.76L55.36-11.76Q55.08-14.88 53.02-16.82Q50.96-18.76 47.88-18.76L47.88-18.76Z"></path>
    <path transform="" stroke="none" d=""></path>
    <path transform="" stroke="none" d="M93.52-21.04L96.24-21.04L96.24-2.56Q96.24 2.80 93.62 5.38Q91.00 7.96 85.72 7.96L85.72 7.96Q82.80 7.96 80.18 7.10Q77.56 6.24 75.92 4.72L75.92 4.72L77.36 2.56Q78.88 3.92 81.06 4.68Q83.24 5.44 85.64 5.44L85.64 5.44Q89.64 5.44 91.52 3.58Q93.40 1.72 93.40-2.20L93.40-2.20L93.40-4.88Q92.08-2.88 89.94-1.84Q87.80-0.80 85.20-0.80L85.20-0.80Q82.24-0.80 79.82-2.10Q77.40-3.40 76.02-5.74Q74.64-8.08 74.64-11.04L74.64-11.04Q74.64-14 76.02-16.32Q77.40-18.64 79.80-19.92Q82.20-21.20 85.20-21.20L85.20-21.20Q87.88-21.20 90.04-20.12Q92.20-19.04 93.52-17L93.52-17L93.52-21.04ZM85.48-3.32Q87.76-3.32 89.60-4.30Q91.44-5.28 92.46-7.04Q93.48-8.80 93.48-11.04L93.48-11.04Q93.48-13.28 92.46-15.02Q91.44-16.76 89.62-17.74Q87.80-18.72 85.48-18.72L85.48-18.72Q83.20-18.72 81.38-17.76Q79.56-16.80 78.54-15.04Q77.52-13.28 77.52-11.04L77.52-11.04Q77.52-8.80 78.54-7.04Q79.56-5.28 81.38-4.30Q83.20-3.32 85.48-3.32L85.48-3.32Z"></path>
    <path transform="" stroke="none" d="M114.00 0.20Q110.96 0.20 108.52-1.18Q106.08-2.56 104.68-5Q103.28-7.44 103.28-10.52L103.28-10.52Q103.28-13.60 104.68-16.04Q106.08-18.48 108.52-19.84Q110.96-21.20 114.00-21.20L114.00-21.20Q117.04-21.20 119.48-19.84Q121.92-18.48 123.30-16.04Q124.68-13.60 124.68-10.52L124.68-10.52Q124.68-7.44 123.30-5Q121.92-2.56 119.48-1.18Q117.04 0.20 114.00 0.20L114.00 0.20ZM114.00-2.32Q116.24-2.32 118.02-3.34Q119.80-4.36 120.80-6.24Q121.80-8.12 121.80-10.52L121.80-10.52Q121.80-12.92 120.80-14.80Q119.80-16.68 118.02-17.70Q116.24-18.72 114.00-18.72L114.00-18.72Q111.76-18.72 109.98-17.70Q108.20-16.68 107.18-14.80Q106.16-12.92 106.16-10.52L106.16-10.52Q106.16-8.12 107.18-6.24Q108.20-4.36 109.98-3.34Q111.76-2.32 114.00-2.32L114.00-2.32Z"></path>
    <path transform="" stroke="none" d="M141.76-3.32L142.76-1.28Q141.96-0.56 140.78-0.18Q139.60 0.20 138.32 0.20L138.32 0.20Q135.36 0.20 133.76-1.40Q132.16-3 132.16-5.92L132.16-5.92L132.16-18.64L128.40-18.64L128.40-21.04L132.16-21.04L132.16-25.64L135-25.64L135-21.04L141.40-21.04L141.40-18.64L135-18.64L135-6.08Q135-4.20 135.94-3.22Q136.88-2.24 138.64-2.24L138.64-2.24Q139.52-2.24 140.34-2.52Q141.16-2.80 141.76-3.32L141.76-3.32Z"></path>
    <path transform="" stroke="none" d=""></path>
    <path transform="" stroke="none" d="M175.68-21.04L178.48-21.04L167.96 2.52Q166.68 5.48 165.00 6.72Q163.32 7.96 160.96 7.96L160.96 7.96Q159.44 7.96 158.12 7.48Q156.80 7 155.84 6.04L155.84 6.04L157.16 3.92Q158.76 5.52 161.00 5.52L161.00 5.52Q162.44 5.52 163.46 4.72Q164.48 3.92 165.36 2L165.36 2L166.28-0.04L156.88-21.04L159.84-21.04L167.76-3.16L175.68-21.04Z"></path>
    <path transform="" stroke="none" d="M191.68 0.20Q188.64 0.20 186.20-1.18Q183.76-2.56 182.36-5Q180.96-7.44 180.96-10.52L180.96-10.52Q180.96-13.60 182.36-16.04Q183.76-18.48 186.20-19.84Q188.64-21.20 191.68-21.20L191.68-21.20Q194.72-21.20 197.16-19.84Q199.60-18.48 200.98-16.04Q202.36-13.60 202.36-10.52L202.36-10.52Q202.36-7.44 200.98-5Q199.60-2.56 197.16-1.18Q194.72 0.20 191.68 0.20L191.68 0.20ZM191.68-2.32Q193.92-2.32 195.70-3.34Q197.48-4.36 198.48-6.24Q199.48-8.12 199.48-10.52L199.48-10.52Q199.48-12.92 198.48-14.80Q197.48-16.68 195.70-17.70Q193.92-18.72 191.68-18.72L191.68-18.72Q189.44-18.72 187.66-17.70Q185.88-16.68 184.86-14.80Q183.84-12.92 183.84-10.52L183.84-10.52Q183.84-8.12 184.86-6.24Q185.88-4.36 187.66-3.34Q189.44-2.32 191.68-2.32L191.68-2.32Z"></path>
    <path transform="" stroke="none" d="M225.48-21.04L228.32-21.04L228.32 0L225.60 0L225.60-3.84Q224.48-1.92 222.52-0.86Q220.56 0.20 218.04 0.20L218.04 0.20Q213.92 0.20 211.54-2.10Q209.16-4.40 209.16-8.84L209.16-8.84L209.16-21.04L212.00-21.04L212.00-9.12Q212.00-5.80 213.64-4.08Q215.28-2.36 218.32-2.36L218.32-2.36Q221.64-2.36 223.56-4.38Q225.48-6.40 225.48-10L225.48-10L225.48-21.04Z"></path>
    <path transform="" stroke="none" d=""></path>
    <path transform="" stroke="none" d="M257.88 0.20Q254.76 0.20 252.30-1.16Q249.84-2.52 248.44-4.98Q247.04-7.44 247.04-10.52L247.04-10.52Q247.04-13.60 248.44-16.04Q249.84-18.48 252.30-19.84Q254.76-21.20 257.88-21.20L257.88-21.20Q260.60-21.20 262.74-20.14Q264.88-19.08 266.12-17.04L266.12-17.04L264.00-15.60Q262.96-17.16 261.36-17.94Q259.76-18.72 257.88-18.72L257.88-18.72Q255.60-18.72 253.78-17.70Q251.96-16.68 250.94-14.80Q249.92-12.92 249.92-10.52L249.92-10.52Q249.92-8.08 250.94-6.22Q251.96-4.36 253.78-3.34Q255.60-2.32 257.88-2.32L257.88-2.32Q259.76-2.32 261.36-3.08Q262.96-3.84 264.00-5.40L264.00-5.40L266.12-3.96Q264.88-1.92 262.72-0.86Q260.56 0.20 257.88 0.20L257.88 0.20Z"></path>
    <path transform="" stroke="none" d="M281.12 0.20Q278.08 0.20 275.64-1.18Q273.20-2.56 271.80-5Q270.40-7.44 270.40-10.52L270.40-10.52Q270.40-13.60 271.80-16.04Q273.20-18.48 275.64-19.84Q278.08-21.20 281.12-21.20L281.12-21.20Q284.16-21.20 286.60-19.84Q289.04-18.48 290.42-16.04Q291.80-13.60 291.80-10.52L291.80-10.52Q291.80-7.44 290.42-5Q289.04-2.56 286.60-1.18Q284.16 0.20 281.12 0.20L281.12 0.20ZM281.12-2.32Q283.36-2.32 285.14-3.34Q286.92-4.36 287.92-6.24Q288.92-8.12 288.92-10.52L288.92-10.52Q288.92-12.92 287.92-14.80Q286.92-16.68 285.14-17.70Q283.36-18.72 281.12-18.72L281.12-18.72Q278.88-18.72 277.10-17.70Q275.32-16.68 274.30-14.80Q273.28-12.92 273.28-10.52L273.28-10.52Q273.28-8.12 274.30-6.24Q275.32-4.36 277.10-3.34Q278.88-2.32 281.12-2.32L281.12-2.32Z"></path>
    <path transform="" stroke="none" d="M313.08-21.04L315.88-21.04L306.52 0L303.60 0L294.28-21.04L297.24-21.04L305.12-3.12L313.08-21.04Z"></path>
    <path transform="" stroke="none" d="M338.84-10.52L338.80-9.64L321.20-9.64Q321.44-6.36 323.72-4.34Q326.00-2.32 329.48-2.32L329.48-2.32Q331.44-2.32 333.08-3.02Q334.72-3.72 335.92-5.08L335.92-5.08L337.52-3.24Q336.12-1.56 334.02-0.68Q331.92 0.20 329.40 0.20L329.40 0.20Q326.16 0.20 323.66-1.18Q321.16-2.56 319.76-5Q318.36-7.44 318.36-10.52L318.36-10.52Q318.36-13.60 319.70-16.04Q321.04-18.48 323.38-19.84Q325.72-21.20 328.64-21.20L328.64-21.20Q331.56-21.20 333.88-19.84Q336.20-18.48 337.52-16.06Q338.84-13.64 338.84-10.52L338.84-10.52ZM328.64-18.76Q325.60-18.76 323.54-16.82Q321.48-14.88 321.20-11.76L321.20-11.76L336.12-11.76Q335.84-14.88 333.78-16.82Q331.72-18.76 328.64-18.76L328.64-18.76Z"></path>
    <path transform="" stroke="none" d="M348.56-16.92Q349.56-19.04 351.54-20.12Q353.52-21.20 356.44-21.20L356.44-21.20L356.44-18.44L355.76-18.48Q352.44-18.48 350.56-16.44Q348.68-14.40 348.68-10.72L348.68-10.72L348.68 0L345.84 0L345.84-21.04L348.56-21.04L348.56-16.92Z"></path>
    <path transform="" stroke="none" d="M380.92-10.52L380.88-9.64L363.28-9.64Q363.52-6.36 365.80-4.34Q368.08-2.32 371.56-2.32L371.56-2.32Q373.52-2.32 375.16-3.02Q376.80-3.72 378.00-5.08L378.00-5.08L379.60-3.24Q378.20-1.56 376.10-0.68Q374.00 0.20 371.48 0.20L371.48 0.20Q368.24 0.20 365.74-1.18Q363.24-2.56 361.84-5Q360.44-7.44 360.44-10.52L360.44-10.52Q360.44-13.60 361.78-16.04Q363.12-18.48 365.46-19.84Q367.80-21.20 370.72-21.20L370.72-21.20Q373.64-21.20 375.96-19.84Q378.28-18.48 379.60-16.06Q380.92-13.64 380.92-10.52L380.92-10.52ZM370.72-18.76Q367.68-18.76 365.62-16.82Q363.56-14.88 363.28-11.76L363.28-11.76L378.20-11.76Q377.92-14.88 375.86-16.82Q373.80-18.76 370.72-18.76L370.72-18.76Z"></path>
    <path transform="" stroke="none" d="M404.28-29.68L407.12-29.68L407.12 0L404.40 0L404.40-4.16Q403.12-2.04 401.02-0.92Q398.92 0.20 396.28 0.20L396.28 0.20Q393.32 0.20 390.92-1.16Q388.52-2.52 387.16-4.96Q385.80-7.40 385.80-10.52L385.80-10.52Q385.80-13.64 387.16-16.08Q388.52-18.52 390.92-19.86Q393.32-21.20 396.28-21.20L396.28-21.20Q398.84-21.20 400.90-20.14Q402.96-19.08 404.28-17.04L404.28-17.04L404.28-29.68ZM396.52-2.32Q398.72-2.32 400.50-3.34Q402.28-4.36 403.30-6.24Q404.32-8.12 404.32-10.52L404.32-10.52Q404.32-12.92 403.30-14.80Q402.28-16.68 400.50-17.70Q398.72-18.72 396.52-18.72L396.52-18.72Q394.28-18.72 392.50-17.70Q390.72-16.68 389.70-14.80Q388.68-12.92 388.68-10.52L388.68-10.52Q388.68-8.12 389.70-6.24Q390.72-4.36 392.50-3.34Q394.28-2.32 396.52-2.32L396.52-2.32Z"></path>
    </g>
        </svg>
      </g><g opacity="1" transform="rotate(0 13.413999999999987 165.08759999999998)">
        <svg width="369.1719" height="64.9994" x="13.413999999999987" y="165.08759999999998" version="1.1" preserveAspectRatio="none" viewBox="1.4 -29 167.4356 29.48">
          <g transform="matrix(1 0 0 1 0 0)" class="companyName5o5QLs22F"><path transform="" stroke="none" d="M14.52-2.32L14.56-2.32Q14.68-2.32 14.78-2.18Q14.88-2.04 14.80-1.92L14.80-1.92Q12.12 0.48 8.88 0.48L8.88 0.48Q6.52 0.48 4.84-0.58Q3.16-1.64 2.28-3.42Q1.40-5.20 1.40-7.24L1.40-7.24Q1.40-9.60 2.54-11.56Q3.68-13.52 5.64-14.66Q7.60-15.80 9.96-15.80L9.96-15.80Q12.28-15.80 13.50-14.62Q14.72-13.44 14.72-11.24L14.72-11.24Q14.72-10.16 14.24-10.16L14.24-10.16L4.36-10.12Q4.28-9.24 4.28-8.76L4.28-8.76Q4.28-5.28 5.92-3.16Q7.56-1.04 10.56-1.04L10.56-1.04Q11.76-1.04 12.58-1.34Q13.40-1.64 14.52-2.32L14.52-2.32ZM8.60-15Q6.92-15 5.84-13.86Q4.76-12.72 4.44-10.68L4.44-10.68L11.72-10.84Q11.72-12.88 10.90-13.94Q10.08-15 8.60-15L8.60-15Z"></path>
    <path transform="" stroke="none" d="M33.52-0.48Q33.60-0.48 33.60-0.24Q33.60 0 33.52 0L33.52 0L32.16-0.04Q31.72-0.08 30.88-0.08L30.88-0.08L28.28-0.04Q27.68 0 26.64 0L26.64 0Q26.52 0 26.52-0.24Q26.52-0.48 26.64-0.48L26.64-0.48Q27.32-0.48 27.60-0.58Q27.88-0.68 27.88-0.96L27.88-0.96Q27.88-1.32 27.40-2.04L27.40-2.04L24.44-6.52L22.24-3.32Q21.40-2.08 21.40-1.48L21.40-1.48Q21.40-0.48 23.60-0.48L23.60-0.48Q23.72-0.48 23.72-0.24Q23.72 0 23.60 0L23.60 0Q22.52 0 22-0.04L22-0.04L19.60-0.08L18.12-0.04Q17.72 0 16.80 0L16.80 0Q16.72 0 16.72-0.24Q16.72-0.48 16.80-0.48L16.80-0.48Q17.92-0.48 19.16-1.28Q20.40-2.08 21.44-3.56L21.44-3.56L24.04-7.12L20.72-12.12Q19.76-13.56 18.76-14.26Q17.76-14.96 16.96-14.96L16.96-14.96Q16.88-14.96 16.88-15.20Q16.88-15.44 16.96-15.44L16.96-15.44Q17.80-15.44 18.20-15.40L18.20-15.40L19.44-15.36L22.08-15.40Q22.68-15.44 23.68-15.44L23.68-15.44Q23.76-15.44 23.76-15.20Q23.76-14.96 23.68-14.96L23.68-14.96Q23.04-14.96 22.74-14.86Q22.44-14.76 22.44-14.48L22.44-14.48Q22.44-14.12 22.92-13.40L22.92-13.40L25.60-9.32L27.48-12.12Q28.36-13.36 28.36-14L28.36-14Q28.36-14.96 26.12-14.96L26.12-14.96Q26.04-14.96 26.04-15.20Q26.04-15.44 26.12-15.44L26.12-15.44Q27.20-15.44 27.76-15.40L27.76-15.40L30.16-15.36L31.64-15.40Q32.04-15.44 32.96-15.44L32.96-15.44Q33.04-15.44 33.04-15.20Q33.04-14.96 32.96-14.96L32.96-14.96Q31.84-14.96 30.64-14.18Q29.44-13.40 28.32-11.88L28.32-11.88L26-8.72L29.60-3.32Q30.60-1.84 31.64-1.16Q32.68-0.48 33.52-0.48L33.52-0.48Z"></path>
    <path transform="" stroke="none" d="M43.16 0.48Q40.56 0.48 38.80-0.66Q37.04-1.80 36.18-3.60Q35.32-5.40 35.32-7.40L35.32-7.40Q35.32-9.96 36.64-11.86Q37.96-13.76 40-14.78Q42.04-15.80 44.20-15.80L44.20-15.80Q46-15.80 47.46-15.08Q48.92-14.36 48.92-13.28L48.92-13.28Q48.92-12.68 48.50-12.28Q48.08-11.88 47.40-11.88L47.40-11.88Q46.12-11.88 45.48-13.32L45.48-13.32Q45.04-14.20 44.46-14.60Q43.88-15 42.80-15L42.80-15Q40.64-15 39.44-13.26Q38.24-11.52 38.24-8.64L38.24-8.64Q38.24-5.28 39.88-3.14Q41.52-1 44.88-1L44.88-1Q47.16-1 48.88-2.28L48.88-2.28L48.96-2.28Q49.08-2.28 49.18-2.16Q49.28-2.04 49.16-1.96L49.16-1.96Q47.76-0.68 46.34-0.10Q44.92 0.48 43.16 0.48L43.16 0.48Z"></path>
    <path transform="" stroke="none" d="M52 0Q51.88 0 51.88-0.24Q51.88-0.48 52-0.48L52-0.48Q53.48-0.48 53.96-1.02Q54.44-1.56 54.44-3.24L54.44-3.24L54.44-23.84Q54.44-25.28 54.18-25.92Q53.92-26.56 53.24-26.56L53.24-26.56Q52.64-26.56 51.44-26L51.44-26L51.40-26Q51.24-26 51.14-26.22Q51.04-26.44 51.20-26.48L51.20-26.48L56.48-28.96L56.64-29Q56.76-29 56.92-28.88Q57.08-28.76 57.08-28.64L57.08-28.64L57.08-3.24Q57.08-1.56 57.54-1.02Q58-0.48 59.52-0.48L59.52-0.48Q59.64-0.48 59.64-0.24Q59.64 0 59.52 0L59.52 0Q58.56 0 57.96-0.04L57.96-0.04L55.76-0.08L53.52-0.04Q52.96 0 52 0L52 0Z"></path>
    <path transform="" stroke="none" d="M80.32-2.32L80.40-2.36Q80.56-2.36 80.62-2.16Q80.68-1.96 80.56-1.88L80.56-1.88L75.72 0.40L75.56 0.44Q75.16 0.44 74.80-0.52Q74.44-1.48 74.44-3L74.44-3Q71.44 0.36 68.20 0.36L68.20 0.36Q66.16 0.36 65-0.92Q63.84-2.20 63.84-4.56L63.84-4.56L63.84-10.68Q63.84-12.20 63.58-12.88Q63.32-13.56 62.68-13.56L62.68-13.56Q62.20-13.56 61.36-13.20L61.36-13.20L61.28-13.20Q61.16-13.20 61.10-13.40Q61.04-13.60 61.16-13.64L61.16-13.64L65.76-15.76L65.92-15.80Q66.04-15.80 66.20-15.68Q66.36-15.56 66.36-15.44L66.36-15.44L66.36-6.04Q66.36-1.44 69.72-1.44L69.72-1.44Q70.92-1.44 72.16-2.04Q73.40-2.64 74.44-3.72L74.44-3.72L74.44-10.68Q74.44-12.20 74.16-12.88Q73.88-13.56 73.24-13.56L73.24-13.56Q72.76-13.56 71.92-13.20L71.92-13.20L71.84-13.20Q71.72-13.20 71.68-13.40Q71.64-13.60 71.76-13.64L71.76-13.64L76.36-15.76L76.52-15.80Q76.64-15.80 76.78-15.68Q76.92-15.56 76.92-15.44L76.92-15.44L76.92-4.36Q76.92-3 77.24-2.40Q77.56-1.80 78.28-1.80L78.28-1.80Q78.88-1.80 80.32-2.32L80.32-2.32Z"></path>
    <path transform="" stroke="none" d="M84.80-13.12Q84.80-11.76 85.68-10.92Q86.56-10.08 88.32-9.16L88.32-9.16Q89.72-8.44 90.52-7.92Q91.32-7.40 91.88-6.54Q92.44-5.68 92.44-4.48L92.44-4.48Q92.44-2.44 90.92-1Q89.40 0.44 86.72 0.44L86.72 0.44Q85.68 0.44 84.74 0.16Q83.80-0.12 82.84-0.76L82.84-0.76Q82.60-0.92 82.60-1.24L82.60-1.24L82.52-4.48Q82.52-4.60 82.74-4.62Q82.96-4.64 83-4.52L83-4.52Q83.72-2.52 85-1.42Q86.28-0.32 87.88-0.32L87.88-0.32Q89.04-0.32 89.68-0.88Q90.32-1.44 90.32-2.56L90.32-2.56Q90.32-4.16 89.42-5.02Q88.52-5.88 86.72-6.80L86.72-6.80Q85.36-7.48 84.60-8Q83.84-8.52 83.30-9.36Q82.76-10.20 82.76-11.44L82.76-11.44Q82.76-13.64 84.38-14.78Q86-15.92 88.28-15.92L88.28-15.92Q89.88-15.92 91.28-15.32L91.28-15.32Q91.64-15.16 91.64-14.88L91.64-14.88Q91.64-14.04 91.60-13.56L91.60-13.56L91.56-11.84Q91.56-11.76 91.32-11.76Q91.08-11.76 91.08-11.84L91.08-11.84Q91.08-13.08 89.74-14.10Q88.40-15.12 86.88-15.12L86.88-15.12Q85.92-15.12 85.36-14.64Q84.80-14.16 84.80-13.12L84.80-13.12Z"></path>
    <path transform="" stroke="none" d="M99.64-20.36Q98.76-20.36 98.26-20.84Q97.76-21.32 97.76-22.20L97.76-22.20Q97.76-23 98.26-23.48Q98.76-23.96 99.64-23.96L99.64-23.96Q100.48-23.96 100.96-23.48Q101.44-23 101.44-22.20L101.44-22.20Q101.44-21.32 100.96-20.84Q100.48-20.36 99.64-20.36L99.64-20.36ZM96.20 0Q96.08 0 96.08-0.24Q96.08-0.48 96.20-0.48L96.20-0.48Q97.68-0.48 98.16-1.02Q98.64-1.56 98.64-3.24L98.64-3.24L98.64-10.68Q98.64-12.08 98.36-12.72Q98.08-13.36 97.36-13.36L97.36-13.36Q96.68-13.36 95.60-12.80L95.60-12.80L95.56-12.80Q95.40-12.80 95.32-13Q95.24-13.20 95.40-13.28L95.40-13.28L100.72-15.76L100.88-15.80Q101-15.80 101.14-15.68Q101.28-15.56 101.28-15.44L101.28-15.44Q101.28-15.16 101.24-13.84Q101.20-12.52 101.20-10.72L101.20-10.72L101.20-3.24Q101.20-2.08 101.38-1.50Q101.56-0.92 102.08-0.70Q102.60-0.48 103.64-0.48L103.64-0.48Q103.76-0.48 103.76-0.24Q103.76 0 103.64 0L103.64 0Q102.64 0 102.08-0.04L102.08-0.04L99.92-0.08L97.68-0.04Q97.12 0 96.20 0L96.20 0Z"></path>
    <path transform="" stroke="none" d="M122.40-15.44Q122.48-15.44 122.48-15.20Q122.48-14.96 122.40-14.96L122.40-14.96Q121.36-14.96 120.62-14.26Q119.88-13.56 119.20-11.92L119.20-11.92L114.20-0.04Q114.12 0.16 113.76 0.16L113.76 0.16Q113.44 0.16 113.32-0.04L113.32-0.04L107.64-12.12Q106.84-13.88 106.28-14.42Q105.72-14.96 104.92-14.96L104.92-14.96Q104.80-14.96 104.80-15.20Q104.80-15.44 104.92-15.44L104.92-15.44Q105.68-15.44 106.12-15.40L106.12-15.40L107.84-15.36L110.56-15.40Q111.16-15.44 112.20-15.44L112.20-15.44Q112.32-15.44 112.32-15.20Q112.32-14.96 112.20-14.96L112.20-14.96Q109.84-14.96 109.84-14.04L109.84-14.04Q109.84-13.72 110-13.40L110-13.40L114.76-3.40L118.36-12.08Q118.64-12.84 118.64-13.28L118.64-13.28Q118.64-14.96 115.56-14.96L115.56-14.96Q115.48-14.96 115.48-15.20Q115.48-15.44 115.56-15.44L115.56-15.44Q116.64-15.44 117.20-15.40L117.20-15.40L119.60-15.36L121.12-15.40Q121.52-15.44 122.40-15.44L122.40-15.44Z"></path>
    <path transform="" stroke="none" d="M127.88-20.36Q127-20.36 126.50-20.84Q126-21.32 126-22.20L126-22.20Q126-23 126.50-23.48Q127-23.96 127.88-23.96L127.88-23.96Q128.72-23.96 129.20-23.48Q129.68-23 129.68-22.20L129.68-22.20Q129.68-21.32 129.20-20.84Q128.72-20.36 127.88-20.36L127.88-20.36ZM124.44 0Q124.32 0 124.32-0.24Q124.32-0.48 124.44-0.48L124.44-0.48Q125.92-0.48 126.40-1.02Q126.88-1.56 126.88-3.24L126.88-3.24L126.88-10.68Q126.88-12.08 126.60-12.72Q126.32-13.36 125.60-13.36L125.60-13.36Q124.92-13.36 123.84-12.80L123.84-12.80L123.80-12.80Q123.64-12.80 123.56-13Q123.48-13.20 123.64-13.28L123.64-13.28L128.96-15.76L129.12-15.80Q129.24-15.80 129.38-15.68Q129.52-15.56 129.52-15.44L129.52-15.44Q129.52-15.16 129.48-13.84Q129.44-12.52 129.44-10.72L129.44-10.72L129.44-3.24Q129.44-2.08 129.62-1.50Q129.80-0.92 130.32-0.70Q130.84-0.48 131.88-0.48L131.88-0.48Q132-0.48 132-0.24Q132 0 131.88 0L131.88 0Q130.88 0 130.32-0.04L130.32-0.04L128.16-0.08L125.92-0.04Q125.36 0 124.44 0L124.44 0Z"></path>
    <path transform="" stroke="none" d="M153.16-0.48Q153.28-0.48 153.28-0.24Q153.28 0 153.16 0L153.16 0Q152.16 0 151.60-0.04L151.60-0.04L149.44-0.08L147.28-0.04Q146.72 0 145.76 0L145.76 0Q145.64 0 145.64-0.24Q145.64-0.48 145.76-0.48L145.76-0.48Q146.80-0.48 147.30-0.70Q147.80-0.92 147.98-1.50Q148.16-2.08 148.16-3.24L148.16-3.24L148.16-9.60Q148.16-11.92 147.30-13.02Q146.44-14.12 144.56-14.12L144.56-14.12Q143.40-14.12 142.18-13.52Q140.96-12.92 139.96-11.84L139.96-11.84L139.96-3.24Q139.96-2.08 140.14-1.50Q140.32-0.92 140.84-0.70Q141.36-0.48 142.40-0.48L142.40-0.48Q142.52-0.48 142.52-0.24Q142.52 0 142.40 0L142.40 0Q141.40 0 140.84-0.04L140.84-0.04L138.68-0.08L136.52-0.04Q135.96 0 135 0L135 0Q134.88 0 134.88-0.24Q134.88-0.48 135-0.48L135-0.48Q136.04-0.48 136.54-0.70Q137.04-0.92 137.22-1.50Q137.40-2.08 137.40-3.24L137.40-3.24L137.40-11.08Q137.40-12.40 137.08-13Q136.76-13.60 136.04-13.60L136.04-13.60Q135.44-13.60 133.92-13L133.92-13L133.88-13Q133.72-13 133.64-13.18Q133.56-13.36 133.72-13.44L133.72-13.44L138.52-15.76L138.76-15.80Q139.16-15.80 139.54-14.90Q139.92-14 139.96-12.52L139.96-12.52Q142.88-15.96 146.08-15.96L146.08-15.96Q148.28-15.96 149.50-14.68Q150.72-13.40 150.72-11.04L150.72-11.04L150.72-3.24Q150.72-2.08 150.90-1.50Q151.08-0.92 151.60-0.70Q152.12-0.48 153.16-0.48L153.16-0.48Z"></path>
    <path transform="" stroke="none" d="M168.52-2.32L168.56-2.32Q168.68-2.32 168.78-2.18Q168.88-2.04 168.80-1.92L168.80-1.92Q166.12 0.48 162.88 0.48L162.88 0.48Q160.52 0.48 158.84-0.58Q157.16-1.64 156.28-3.42Q155.40-5.20 155.40-7.24L155.40-7.24Q155.40-9.60 156.54-11.56Q157.68-13.52 159.64-14.66Q161.60-15.80 163.96-15.80L163.96-15.80Q166.28-15.80 167.50-14.62Q168.72-13.44 168.72-11.24L168.72-11.24Q168.72-10.16 168.24-10.16L168.24-10.16L158.36-10.12Q158.28-9.24 158.28-8.76L158.28-8.76Q158.28-5.28 159.92-3.16Q161.56-1.04 164.56-1.04L164.56-1.04Q165.76-1.04 166.58-1.34Q167.40-1.64 168.52-2.32L168.52-2.32ZM162.60-15Q160.92-15 159.84-13.86Q158.76-12.72 158.44-10.68L158.44-10.68L165.72-10.84Q165.72-12.88 164.90-13.94Q164.08-15 162.60-15L162.60-15Z"></path>
    </g>
        </svg>
      </g><g opacity="1" transform="rotate(0 125.53410000000002 0)">
        <svg width="144.9318" height="125.6075" x="125.53410000000002" y="0" version="1.1" preserveAspectRatio="none" viewBox="4 5.099999904632568 24 20.799999237060547">
          <g transform="matrix(1 0 0 1 0 0)" class="icon15o5QLs22F"><path d="M16,5.1L4,25.9h24L16,5.1z M6,24.9L16,7.6l7.3,12.6l-2.7,4.7H6z"></path></g>
        </svg>
      </g></svg>